<?xml version="1.0" standalone="no"?><!DOCTYPE svg PUBLIC "-//W3C//DTD SVG 1.1//EN" "http://www.w3.org/Graphics/SVG/1.1/DTD/svg11.dtd"><svg t="1522828592686" class="icon" style="" viewBox="0 0 1024 1024" version="1.1" xmlns="http://www.w3.org/2000/svg" p-id="6040" xmlns:xlink="http://www.w3.org/1999/xlink" width="32" height="32"><defs><style type="text/css"></style></defs><path d="M514.51938 58.335616c-192.626135 0-348.930017 158.573575-348.930018 354.607321 0 74.924433 23.029506 144.600329 62.166875 201.831798 1.899256 3.295046 3.613294 6.528694 5.940293 9.456372l237.642398 304.151162c11.882632 15.923668 27.561729 23.551392 43.24185 23.551392 15.680121 0 31.29782-7.626701 43.179429-23.551392l237.70482-304.151162c2.205225-2.928702 3.981684-6.101975 5.695722-9.091052 39.260166-57.412594 62.350047-126.968763 62.350047-202.136743-0.121773-196.095143-156.243507-354.667695-348.991416-354.667696z m0 496.524541c-77.111239 0-139.584082-63.636343-139.584082-141.855822 0-78.341253 62.472843-141.91722 139.584082-141.91722 77.04984 0 139.584082 63.575967 139.584082 141.91722 0 78.218456-62.47182 141.855822-139.584082 141.855822z" p-id="6041" fill="#3c7ce5"></path></svg>